#!OML:ASF F:\VICON\USERDATA\INSTALL\rory3\rory3.ASF
:FULLY-SPECIFIED
:DEGREES
2095
root 0.577934 14.9839 -0.467147 7.25999 3.66857 1.0647
lowerback 18.8364 0.472912 -3.24647
upperback -1.75439 -0.774488 -5.24543
thorax -12.6633 -0.370293 -3.79668
lowerneck -10.3801 10.9162 -11.1039
upperneck 6.30077 15.2211 14.3333
head 1.5478 8.00442 6.52236
rclavicle 7.55382e-015 3.18055e-015
rhumerus -77.2935 36.7168 -94.9952
rradius 125.906
rwrist -43.2639
rhand 43.2628 10.4978
rfingers 7.12502
rthumb 65.0384 3.38501
lclavicle 7.55382e-015 3.18055e-015
lhumerus -77.1942 -44.8773 91.5092
lradius 122.294
lwrist 79.3167
lhand 25.5801 41.92
lfingers 7.12502
lthumb 49.6932 63.3024
rfemur -29.9136 -4.21895 13.5398
rtibia 53.802
rfoot -23.79 -7.88493
rtoes -22.0866
lfemur -30.8166 6.36757 -19.936
ltibia 51.3573
lfoot -19.0758 -9.03554
ltoes -4.01874
2096
root 0.579797 15 -0.46226 7.28629 3.65508 1.11285
lowerback 18.7172 0.463389 -3.35593
upperback -1.76815 -0.799173 -5.19904
thorax -12.6081 -0.37164 -3.67147
lowerneck -10.2955 10.6635 -11.1948
upperneck 6.38045 14.872 14.428
head 1.58845 7.83019 6.5693
rclavicle -3.77691e-014 -2.38542e-014
rhumerus -77.3032 36.8705 -95.0969
rradius 125.86
rwrist -43.1532
rhand 43.2744 10.475
rfingers 7.12502
rthumb 65.0476 3.37756
lclavicle -3.77691e-014 -2.38542e-014
lhumerus -77.1102 -44.7867 91.5351
lradius 122.21
lwrist 79.1992
lhand 26.1532 43.0395
lfingers 7.12502
lthumb 50.2178 64.1472
rfemur -29.7376 -4.16604 13.4809
rtibia 53.4499
rfoot -23.6123 -7.97269
rtoes -22.1907
lfemur -30.6181 6.20124 -19.99
ltibia 51.0119
lfoot -18.9851 -8.8582
ltoes -4.15331
2097
root 0.581673 15.019 -0.455853 7.26103 3.60232 1.10509
lowerback 18.6512 0.465067 -3.45124
upperback -1.79323 -0.807176 -5.12874
thorax -12.5959 -0.365384 -3.53437
lowerneck -10.2868 10.3746 -11.2112
upperneck 6.60164 14.459 14.5037
head 1.6989 7.62744 6.61306
rclavicle 1.35174e-014 -2.8625e-014
rhumerus -77.3258 37.0661 -95.1735
rradius 125.841
rwrist -43.1662
rhand 43.4472 10.3899
rfingers 7.12502
rthumb 65.1837 3.5219
lclavicle 1.35174e-014 -2.8625e-014
lhumerus -77.1909 -44.654 91.6486
lradius 122.193
lwrist 79.1538
lhand 26.1101 43.1833
lfingers 7.12502
lthumb 50.1784 64.3119
rfemur -29.482 -4.04405 13.477
rtibia 53.0536
rfoot -23.4859 -7.96158
rtoes -21.9408
lfemur -30.3474 6.00257 -19.9759
ltibia 50.6266
lfoot -18.915 -8.6127
ltoes -4.201
2098
root 0.581818 15.0405 -0.448213 7.25924 3.5766 1.07859
lowerback 18.5336 0.445505 -3.56341
upperback -1.8164 -0.84091 -5.03886
thorax -12.5514 -0.36893 -3.35676
lowerneck -10.4037 10.0589 -11.2242
upperneck 6.95869 14.0077 14.6034
head 1.87353 7.41106 6.67836
rclavicle -1.31198e-014 0
rhumerus -77.3222 37.2703 -95.2396
rradius 125.807
rwrist -43.1033
rhand 43.4688 10.3809
rfingers 7.12502
rthumb 65.2006 3.54166
lclavicle -1.31198e-014 0
lhumerus -77.2703 -44.4935 91.7312
lradius 122.206
lwrist 79.245
lhand 25.719 43.0439
lfingers 7.12502
lthumb 49.8205 64.3604
rfemur -29.2428 -3.89889 13.5035
rtibia 52.6445
rfoot -23.3185 -7.96353
rtoes -21.6192
lfemur -30.08 5.71128 -19.9189
ltibia 50.2028
lfoot -18.7838 -8.36868
ltoes -3.93334
2099
root 0.5832 15.0622 -0.442206 7.25443 3.58691 1.0734
lowerback 18.3992 0.398991 -3.67122
upperback -1.79634 -0.903417 -4.93538
thorax -12.4475 -0.385591 -3.15617
lowerneck -10.5549 9.75386 -11.2524
upperneck 7.29585 13.5811 14.6225
head 2.05035 7.20364 6.7212
rclavicle -1.55052e-014 7.95139e-015
rhumerus -77.2689 37.5547 -95.2696
rradius 125.808
rwrist -43.0179
rhand 43.3862 10.391
rfingers 7.12502
rthumb 65.1357 3.44164
lclavicle -1.55052e-014 7.95139e-015
lhumerus -77.0866 -44.3195 91.6187
lradius 122.22
lwrist 79.2376
lhand 25.9409 43.1806
lfingers 7.12502
lthumb 50.0236 64.391
rfemur -28.9833 -3.8227 13.5024
rtibia 52.2094
rfoot -23.1727 -7.90903
rtoes -21.2181
lfemur -29.8096 5.38448 -19.8931
ltibia 49.7685
lfoot -18.6845 -8.06951
ltoes -3.96443
